<?xml version="1.0" standalone="no"?>
<!DOCTYPE svg PUBLIC "-//W3C//DTD SVG 20010904//EN"
 "http://www.w3.org/TR/2001/REC-SVG-20010904/DTD/svg10.dtd">
<svg version="1.0" xmlns="http://www.w3.org/2000/svg"
 width="700.000000pt" height="700.000000pt" viewBox="0 0 700.000000 700.000000"
 preserveAspectRatio="xMidYMid meet">
<metadata>
Created by potrace 1.14, written by Peter Selinger 2001-2017
</metadata>
<g transform="translate(0.000000,700.000000) scale(0.100000,-0.100000)"
fill="#000000" stroke="none">
<path d="M2057 6414 c-1 -1 -51 -5 -112 -8 -60 -3 -121 -8 -135 -10 -14 -3
-50 -7 -80 -10 -30 -3 -66 -8 -80 -10 -14 -2 -47 -7 -75 -11 -27 -3 -57 -8
-65 -10 -8 -2 -28 -7 -45 -9 -52 -9 -266 -64 -352 -90 -340 -103 -628 -278
-758 -461 -93 -131 -179 -346 -231 -580 -11 -47 -36 -172 -39 -195 -2 -14 -6
-38 -9 -55 -14 -84 -37 -283 -51 -434 -27 -314 -27 -1088 0 -1506 8 -118 16
-231 20 -270 3 -22 7 -69 10 -105 11 -148 15 -197 20 -230 2 -19 7 -57 10 -85
13 -128 35 -312 40 -335 2 -14 6 -43 9 -65 2 -22 9 -69 15 -105 6 -36 13 -83
16 -105 3 -22 8 -51 10 -65 3 -14 7 -41 10 -60 5 -30 26 -141 41 -220 30 -149
76 -312 109 -384 103 -224 347 -425 625 -514 236 -75 417 -56 528 55 66 67 95
127 83 170 -13 46 -29 71 -96 158 -145 186 -240 358 -273 495 -19 75 -25 116
-37 234 -5 46 -5 365 -1 411 3 22 7 77 11 121 3 45 8 93 10 105 2 13 6 51 10
84 3 33 8 69 11 80 6 28 13 73 20 125 3 25 8 48 10 51 2 4 6 24 10 45 9 62 45
208 54 217 4 5 10 -9 14 -30 10 -64 16 -97 22 -133 3 -19 8 -48 11 -65 8 -51
63 -294 94 -420 17 -66 32 -127 34 -135 2 -8 35 -141 73 -295 63 -251 111
-465 127 -565 3 -19 7 -46 10 -60 14 -72 22 -172 25 -305 11 -448 203 -676
625 -740 70 -11 447 -13 529 -4 349 40 545 180 624 444 35 118 43 184 44 348
l1 128 136 -8 c75 -4 241 -7 369 -7 l232 1 1 -111 c1 -170 15 -266 54 -379
107 -304 353 -426 861 -425 258 1 419 26 551 88 240 111 347 317 358 690 4
122 11 183 37 300 26 123 119 432 158 525 4 11 38 103 75 205 97 268 195 524
205 533 7 8 12 -45 26 -268 2 -27 6 -165 9 -305 6 -226 9 -260 27 -298 68
-145 284 -143 349 4 19 42 20 60 14 307 -3 144 -8 287 -10 317 -2 30 -6 100
-10 155 -3 55 -8 116 -10 135 -2 19 -7 64 -10 100 -3 36 -8 81 -10 100 -3 19
-9 73 -15 120 -14 116 -20 159 -25 189 -2 14 -7 46 -10 70 -6 54 -11 84 -31
191 -9 47 -17 94 -19 105 -8 56 -62 303 -105 480 -26 110 -51 220 -54 245 -26
226 -116 539 -214 740 -140 292 -318 510 -582 714 -58 44 -185 120 -300 180
-236 122 -660 241 -965 272 -22 2 -56 6 -75 9 -38 5 -124 12 -260 21 -47 3
-183 6 -304 6 l-218 0 -83 54 c-122 79 -307 166 -459 214 -227 72 -418 108
-711 136 -65 6 -452 13 -458 8z"/>
</g>
</svg>
